<?xml version="1.0"?>
<svg width="120" height="120" xmlns="http://www.w3.org/2000/svg" xmlns:svg="http://www.w3.org/2000/svg">
 <g class="layer">
  <title>Layer 1</title>
  <g id="jsIcon">
   <path d="m26.4,63c0,-18.56 15.04,-33.6 33.6,-33.6c18.56,0 33.6,15.04 33.6,33.6c0,18.56 -15.04,33.6 -33.6,33.6c-18.56,0 -33.6,-15.04 -33.6,-33.6z" fill="#ffff00" id="svg_5" transform="matrix(1 0 0 1 0 0)"/>
   <path d="m64.64,68.14c0.64,1.38 1.63,2.53 2.85,3.33c1.23,0.8 2.65,1.22 4.08,1.2c2.91,0 4.76,-1.54 4.76,-3.68c0,-2.56 -1.91,-3.47 -5.11,-4.95l-1.76,-0.8c-5.06,-2.3 -8.43,-5.16 -8.43,-11.24c0,-5.6 4,-9.85 10.27,-9.85c2.03,-0.16 4.06,0.33 5.84,1.39c1.77,1.06 3.21,2.65 4.14,4.58l-5.48,3.73c-0.36,-0.95 -0.98,-1.78 -1.78,-2.34c-0.8,-0.57 -1.75,-0.87 -2.72,-0.85c-0.43,-0.05 -0.85,0.01 -1.25,0.14c-0.41,0.14 -0.78,0.37 -1.09,0.67c-0.31,0.3 -0.57,0.67 -0.74,1.08c-0.18,0.42 -0.27,0.85 -0.28,1.31c0,2.24 1.31,3.15 4.32,4.54l1.76,0.8c5.96,2.71 9.34,5.49 9.34,11.72c0,6.71 -4.96,10.4 -11.63,10.4c-2.6,0.17 -5.18,-0.45 -7.45,-1.81c-2.27,-1.35 -4.12,-3.38 -5.33,-5.82l5.7,-3.53zm-24.78,0.65c1.1,2.08 2.1,3.83 4.52,3.83c2.3,0 3.75,-0.96 3.75,-4.69l0,-25.37l7.02,0l0,25.47c0,7.73 -4.27,11.24 -10.47,11.24c-2.2,0.13 -4.38,-0.45 -6.26,-1.67c-1.88,-1.22 -3.36,-3 -4.27,-5.13l5.71,-3.68z" fill="black" id="svg_2"/>
  </g>
 </g>
</svg>