<?xml version="1.0"?>
<svg width="120" height="120" xmlns="http://www.w3.org/2000/svg" xmlns:svg="http://www.w3.org/2000/svg">
 <g id="jsIcon">
  <path d="m7.5,7.5l105,0l0,105l-105,0l0,-105z" fill="#F5DE19" id="svg_1"/>
  <path d="m69.03,68.53c0.9,1.82 2.29,3.35 4.01,4.41c1.73,1.06 3.72,1.61 5.74,1.59c4.09,0 6.7,-2.04 6.7,-4.87c0,-3.38 -2.68,-4.59 -7.18,-6.55l-2.47,-1.06c-7.12,-3.04 -11.85,-6.83 -11.85,-14.87c0,-7.4 5.63,-13.03 14.45,-13.03c2.86,-0.21 5.71,0.43 8.21,1.84c2.49,1.4 4.52,3.51 5.82,6.06l-7.71,4.93c-0.5,-1.26 -1.38,-2.35 -2.51,-3.1c-1.13,-0.76 -2.46,-1.15 -3.82,-1.13c-0.6,-0.06 -1.2,0.01 -1.76,0.19c-0.57,0.19 -1.09,0.49 -1.54,0.88c-0.44,0.4 -0.8,0.89 -1.04,1.43c-0.25,0.55 -0.38,1.13 -0.39,1.73c0,2.96 1.84,4.16 6.07,6l2.47,1.06c8.38,3.59 13.13,7.26 13.13,15.5c0,8.88 -6.98,13.75 -16.36,13.75c-3.65,0.23 -7.29,-0.6 -10.48,-2.39c-3.19,-1.79 -5.79,-4.47 -7.5,-7.7l8.01,-4.67zm-34.85,0.86c1.55,2.75 2.96,5.07 6.35,5.07c3.24,0 5.28,-1.27 5.28,-6.2l0,-33.55l9.87,0l0,33.68c0,10.22 -6,14.87 -14.73,14.87c-3.09,0.17 -6.16,-0.6 -8.8,-2.21c-2.64,-1.61 -4.73,-3.97 -6,-6.79l8.03,-4.87z" fill="black" id="svg_2"/>
 </g>
</svg>